HIERARCHY
ROOT Hips
{
	OFFSET 0.000000 0.000000 0.000000
	CHANNELS 6 Xposition Yposition Zposition Zrotation Yrotation Xrotation 
	JOINT LHipJoint
	{
		OFFSET 0.000000 0.000000 0.000000
		CHANNELS 3 Zrotation Yrotation Xrotation
		JOINT LeftUpLeg
		{
			OFFSET 1.363060 -1.794630 0.839290
			CHANNELS 3 Zrotation Yrotation Xrotation
			JOINT LeftLeg
			{
				OFFSET 2.448110 -6.726130 0.000000
				CHANNELS 3 Zrotation Yrotation Xrotation
				JOINT LeftFoot
				{
					OFFSET 2.562200 -7.039590 0.000000
					CHANNELS 3 Zrotation Yrotation Xrotation
					JOINT LeftToeBase
					{
						OFFSET 0.157640 -0.433110 2.322550
						CHANNELS 3 Zrotation Yrotation Xrotation
						End Site
						{
							OFFSET 0.000000 0.000000 0.000000
						}
					}
				}
			}
		}
	}
	JOINT RHipJoint
	{
		OFFSET 0.000000 0.000000 0.000000
		CHANNELS 3 Zrotation Yrotation Xrotation
		JOINT RightUpLeg
		{
			OFFSET -1.305520 -1.794630 0.839290
			CHANNELS 3 Zrotation Yrotation Xrotation
			JOINT RightLeg
			{
				OFFSET -2.542530 -6.985550 0.000000
				CHANNELS 3 Zrotation Yrotation Xrotation
				JOINT RightFoot
				{
					OFFSET -2.568260 -7.056230 0.000000
					CHANNELS 3 Zrotation Yrotation Xrotation
					JOINT RightToeBase
					{
						OFFSET -0.164730 -0.452590 2.363150
						CHANNELS 3 Zrotation Yrotation Xrotation
						End Site
						{
							OFFSET 0.000000 0.000000 0.000000
						}
					}
				}
			}
		}
	}
	JOINT LowerBack
	{
		OFFSET 0.000000 0.000000 0.000000
		CHANNELS 3 Zrotation Yrotation Xrotation
		JOINT Spine
		{
			OFFSET 0.028270 2.035590 -0.193380
			CHANNELS 3 Zrotation Yrotation Xrotation
			JOINT Spine1
			{
				OFFSET 0.056720 2.048850 -0.042750
				CHANNELS 3 Zrotation Yrotation Xrotation
				JOINT Neck
				{
					OFFSET 0.000000 0.000000 0.000000
					CHANNELS 3 Zrotation Yrotation Xrotation
					JOINT Neck1
					{
						OFFSET -0.054170 1.746240 0.172020
						CHANNELS 3 Zrotation Yrotation Xrotation
						JOINT Head
						{
							OFFSET 0.104070 1.761360 -0.123970
							CHANNELS 3 Zrotation Yrotation Xrotation
							End Site
							{
								OFFSET 0.000000 0.000000 0.000000
							}
						}
					}
				}
				JOINT LeftShoulder
				{
					OFFSET 0.000000 0.000000 0.000000
					CHANNELS 3 Zrotation Yrotation Xrotation
					JOINT LeftArm
					{
						OFFSET 3.362410 1.200890 -0.311210
						CHANNELS 3 Zrotation Yrotation Xrotation
						JOINT LeftForeArm
						{
							OFFSET 4.983000 -0.000000 -0.000000
							CHANNELS 3 Zrotation Yrotation Xrotation
							JOINT LeftHand
							{
								OFFSET 3.483560 -0.000000 -0.000000
								CHANNELS 3 Zrotation Yrotation Xrotation
								JOINT LeftFingerBase
								{
									OFFSET 0.000000 0.000000 0.000000
									CHANNELS 3 Zrotation Yrotation Xrotation
									JOINT LeftHandIndex1
									{
										OFFSET 0.715260 -0.000000 -0.000000
										CHANNELS 3 Zrotation Yrotation Xrotation
										End Site
										{
											OFFSET 0.000000 0.000000 0.000000
										}
									}
								}
								JOINT LThumb
								{
									OFFSET 0.000000 0.000000 0.000000
									CHANNELS 3 Zrotation Yrotation Xrotation
									End Site
									{
										OFFSET 0.000000 0.000000 0.000000
									}
								}
							}
						}
					}
				}
				JOINT RightShoulder
				{
					OFFSET 0.000000 0.000000 0.000000
					CHANNELS 3 Zrotation Yrotation Xrotation
					JOINT RightArm
					{
						OFFSET -3.136600 1.374050 -0.404650
						CHANNELS 3 Zrotation Yrotation Xrotation
						JOINT RightForeArm
						{
							OFFSET -5.241900 -0.000000 -0.000000
							CHANNELS 3 Zrotation Yrotation Xrotation
							JOINT RightHand
							{
								OFFSET -3.444170 -0.000000 -0.000000
								CHANNELS 3 Zrotation Yrotation Xrotation
								JOINT RightFingerBase
								{
									OFFSET 0.000000 0.000000 0.000000
									CHANNELS 3 Zrotation Yrotation Xrotation
									JOINT RightHandIndex1
									{
										OFFSET -0.622530 -0.000000 -0.000000
										CHANNELS 3 Zrotation Yrotation Xrotation
										End Site
										{
											OFFSET 0.000000 0.000000 0.000000
										}
									}
								}
								JOINT RThumb
								{
									OFFSET 0.000000 0.000000 0.000000
									CHANNELS 3 Zrotation Yrotation Xrotation
									End Site
									{
										OFFSET 0.000000 0.000000 0.000000
									}
								}
							}
						}
					}
				}
			}
		}
	}
}
MOTION
Frames: 4
Frame Time: 0.008333
0.292672 18.167636 -12.730997 -5.664949 -6.726264 2.805148 -1.163990 3.655006 2.410744 -9.173471 -5.423242 -31.067122 2.475784 11.920861 35.193549 -1.858834 8.247150 6.755377 0.314300 -3.604000 -9.965100 3.156856 -4.544815 5.428903 25.940689 8.208575 -6.999820 -0.476777 -5.785400 23.496271 -0.897470 0.763880 0.303028 -0.002200 -0.304500 0.836700 5.561489 1.666507 6.670300 4.336598 3.001848 2.768477 -1.264630 1.326319 -7.518514 -5.055883 -4.124737 -16.696151 2.522931 -4.363787 17.614742 -0.518500 -1.867300 9.424500 -7.314826 2.636680 -1.273866 -81.168307 4.395188 21.119306 11.581959 -20.035907 -2.224871 -0.720605 -0.890581 -5.603923 26.295902 14.516591 7.700300 -7.125000 0.000000 0.000000 -0.500700 47.082900 -0.025700 11.418379 -1.421462 -2.339423 70.672724 5.494589 17.312414 -12.444780 25.087519 -3.474597 1.132863 -0.362660 -1.663435 -18.156766 21.172594 -7.286700 7.125000 0.000000 0.000000 5.960300 -7.486700 5.161600
0.294208 18.179010 -12.639552 -5.751787 -6.823024 2.888337 -1.230905 3.643162 2.408832 -8.833484 -5.605386 -30.779525 2.133012 11.555881 34.005998 -1.611667 7.434777 6.099526 0.142415 -1.932203 -5.336351 3.189501 -4.568974 5.474926 25.947230 8.111293 -6.616280 -0.402535 -5.648133 23.095689 -0.876717 0.719063 0.415638 -0.001240 -0.213276 0.586074 5.630734 1.722123 6.769258 4.338095 3.092001 2.661322 -1.321026 1.364747 -7.676484 -5.009112 -4.089499 -16.421721 2.528832 -4.361900 17.492749 -0.522680 -1.865718 9.334745 -7.303729 2.634911 -1.275782 -81.181863 4.768294 21.141310 11.600321 -20.071736 -2.231999 -0.715480 -0.899017 -5.621441 26.223401 14.727921 7.781018 -7.125000 0.000000 0.000000 -0.606779 47.313643 -0.035077 11.411856 -1.430813 -2.350348 70.618502 5.455472 17.631536 -12.675891 25.412093 -3.581979 1.137927 -0.341840 -1.767041 -18.464940 20.988495 -7.345897 7.125000 0.000000 0.000000 5.746221 -7.653275 4.956050
0.295626 18.188621 -12.546384 -5.824861 -6.913131 2.981927 -1.300952 3.624944 2.397762 -8.526639 -5.779109 -30.549191 1.787151 11.177633 32.761566 -1.424881 6.828879 5.587221 0.009533 -0.627879 -1.725362 3.222370 -4.590399 5.522273 25.937393 8.001034 -6.255106 -0.330886 -5.514965 22.708441 -0.863570 0.693880 0.519565 -0.000630 -0.156658 0.430498 5.687209 1.771929 6.814359 4.336797 3.168177 2.570116 -1.367316 1.399597 -7.788639 -4.961148 -4.053171 -16.161392 2.528390 -4.356472 17.357962 -0.529052 -1.863527 9.243251 -7.294441 2.632501 -1.278303 -81.208250 5.110697 21.119064 11.617982 -20.108148 -2.238083 -0.712133 -0.916049 -5.594254 26.220535 15.200257 8.016074 -7.125000 0.000000 0.000000 -0.689473 47.851078 -0.048526 11.406625 -1.438677 -2.359411 70.554003 5.452298 17.938130 -12.876250 25.691940 -3.673160 1.144352 -0.330022 -1.859633 -18.764976 20.948057 -7.452942 7.125000 0.000000 0.000000 5.548367 -7.663203 4.781500
0.296650 18.192317 -12.447433 -5.851755 -6.980920 3.110407 -1.381510 3.585345 2.355969 -8.330981 -5.924584 -30.510963 1.430927 10.754869 31.326309 -1.440669 6.915672 5.556488 0.007500 -0.556369 -1.528793 3.255994 -4.602654 5.574060 25.872611 7.847240 -5.968965 -0.267938 -5.395549 22.365924 -0.875937 0.734564 0.594360 -0.001195 -0.216137 0.593797 5.700842 1.802244 6.678776 4.326121 3.197461 2.532415 -1.379705 1.422447 -7.747088 -4.909184 -4.013192 -15.948370 2.506669 -4.339165 17.180253 -0.542778 -1.859291 9.145927 -7.291220 2.627936 -1.282856 -81.277681 5.350099 20.948365 11.633296 -20.146520 -2.240663 -0.714749 -0.961919 -5.417093 26.451286 16.548224 8.768910 -7.125000 0.000000 0.000000 -0.693709 49.417417 -0.075639 11.405727 -1.441554 -2.362231 70.455027 5.569707 18.202689 -12.973444 25.821729 -3.709989 1.155337 -0.348406 -1.915276 -19.037704 21.389582 -7.720513 7.125000 0.000000 0.000000 5.404951 -7.147605 4.710949
